<?xml version="1.0" encoding="UTF-8"?>
<svg viewBox="0 0 178.64 264.11" xmlns="http://www.w3.org/2000/svg">
 <path d="m144.86-2.923c0 2.086-0.967 8.048 0.65401 8.952 0.98799 0.551 3.473-0.566 4.41-0.917 2.848-1.066 1.173 0.638 2.358 1.311 0.424 0.241-0.13899 1.076 1.136 1.288 0.87401 0.146 2.04-0.39 2.839-0.153 3.919 1.163 1.479 4.624 6.463 4.345 3.048-0.17 2.647 3.21 4.805 4.651 1.617 1.08 4.088 0.625 4.848 2.708 0.183 0.501-2.856 0.964-0.634 2.162 1.248 0.672 2.51 0.528 3.516 1.55 1.5 1.524-1.468 1.906 1.791 2.489 1.498 0.268 3.356-0.604 4.957-0.437 0.54599 0.057001-0.778 19.329-0.89601 21.836-1.397 29.937-1.631 59.957-1.987 89.92-0.181 15.117-0.28499 30.235-0.37999 45.354-0.052002 8.222-0.078003 16.441-0.078003 24.663 0 3.235 0.009003 6.471 0.022003 9.706 0.011002 2.704 0.939 7.88-0.153 10.415-1.596 3.701-7.495 3.515-10.958 4.147-6.862 1.255-13.695 2.686-20.524 4.105-13.737 2.857-27.426 5.996-41.231 8.521-14.396 2.633-28.656 6.091-43.039 8.775-7.075 1.32-14.252 2.008-21.383 2.943-3.271 0.42999-6.512 1.019-9.759 1.595-0.771 0.138-2.238 2.438-3.467 2.928-5.748 2.288-10.881-1.685-15.066-4.825-2.428-1.822-4.95-3.802-6.398-6.528-1.403-2.641-0.405-7.242-0.421-10.29-0.083-15.363-0.179-30.727-0.257-46.091-0.16-31.768-0.304-63.535-0.472-95.303-0.074-13.943 1.168-28.7-0.357-42.567-0.603-5.48-4.613-14.147 2.328-16.98 1.64-0.67 3.338-1.52 5.075-1.886 2.35-0.495 4.312 0.872 6.834 0.611 13.635-1.412 27.768-8.289 40.677-12.619 14.304-4.797 28.6-9.622 42.947-14.29 7.394-2.406 14.787-4.809 22.191-7.182 3.651-1.17 17.132-7.381 19.609-4.907"/>
 <g fill="#fff">
  <path d="m142.72 0.57c-25.924 9.709-52.598 18.111-78.26 28.255-11.459 4.53-23.41 7.907-34.98 12.228-2.602 0.972-5.462 2.407-7.904 2.271-2.075-0.116-3.586-1.249-5.896-0.786-1.968 0.394-2.464 1.217-1.048 2.838 1.152 1.318 1.569-0.352 1.965-0.131v-0.699c1.56 3.237 4.828 4.848 8.167 5.677-4.713-1.545-12.094-4.018-13.445-9.55-1.113-4.557 3.976-1.7 5.007-1.894 12.829-2.416 24.289-7.415 36.577-11.487 14.165-4.694 28.304-9.468 42.502-14.062 13.246-4.286 26.928-7.233 40.022-11.832 1.795-0.628 7.883-4.349 7.293-0.828"/>
  <path d="m143.07 6.641c-18.383 7.552-37.23 13.658-56.112 19.813-9.001 2.934-18.262 4.998-27.257 8.049-7.777 2.639-19.234 8.867-27.513 7.904 19.866-6.997 39.788-13.835 59.654-20.831 16.937-5.964 33.532-13.864 50.879-18.474-0.218 1.286-0.519 2.566 0.349 3.539"/>
  <path d="m150.49 7.339c0.24399 0.741-0.136 1.136 0.39499 1.79-36.142 11.429-71.891 24.373-108.79 33.278 19.625-6.57 39.502-12.289 59.282-18.369 9.848-3.027 19.547-6.446 29.211-10.011 6.416-2.367 13.163-5.789 19.898-6.688"/>
  <path d="m157.26 10.876c1.846 3.906-7.289 4.499-10.045 5.153-4.771 1.133-9.57 2.161-14.361 3.2-9.201 1.995-18.324 4.189-27.345 6.889 8.465-2.694 16.882-5.525 25.322-8.292 3.693-1.211 24.723-9.741 26.429-6.95"/>
  <path d="m165.74 18.301c0.597 0.117 1.193 0.233 1.79 0.35-42.678 10.433-86.292 16.678-128.96 27.294 24.034-7.582 48.841-12.407 73.016-19.232 10.785-3.045 21.67-5.128 32.538-7.845 5.459-1.365 10.891-2.845 16.36-4.166 4.715-1.138 1.883 2.218 5.258 3.599"/>
  <path d="m169.27 20.79c0.041 3.722-41.226 8.212-46.729 8.865 7.95-1.176 15.882-2.5 23.752-4.133 4.109-0.853 8.221-1.691 12.313-2.626 2.82-0.645 8.129-2.847 10.664-2.106"/>
  <path d="m172.46 25.725c-21.122 3.066-41.783 8.233-62.751 12.128-19.001 3.53-38.46 5.899-57.695 7.743 20.063-4.243 40.139-8.388 60.34-11.926 20.114-3.523 40.44-5.878 60.499-9.692-0.028015 0.174-0.38602 1.732-0.393 1.747"/>
  <path d="m179.54 27.166c1.117 61.495-2.644 123.13-2.786 184.64-0.005997 2.595 0.028 5.173 0.106 7.767 0.11 3.649 1.877 7.476-2.057 8.212-7.722 1.447-15.437 2.926-23.148 4.427-13.19 2.566-26.339 5.363-39.501 8.071-26.81 5.516-53.809 9.653-80.662 14.718-0.649-61.332 0.245-122.72 0.611-184.05 7e-3 -1.278-0.44-20.316 0.266-20.395 7.59-0.841 15.174-1.706 22.757-2.605 13.105-1.556 26.189-3.493 39.211-5.632 28.221-4.637 56.769-12.995 85.203-15.152"/>
  <path d="m16.945 49.832c1.453 0.084999 2.035 0.995 3.275 1.441 2.91 1.047 5.928 0.948 9.127 1.091-2.842 5.477-10.687 0.98-14.193-1.091-2.446-1.445-13.754-9.764-6.331-12.403-0.802 5.056 4.594 8.64 8.122 10.962"/>
  <path d="m24.719 46.294c-0.397-0.167-0.738-0.212-1.004-0.699 1.878-0.83 3.755-1.66 5.633-2.49 0.95 2.839-2.728 2.804-4.629 3.189"/>
  <path d="m35.681 46.294c-1.878 0.248-3.756 0.495-5.634 0.743 1.665-1.126 3.866-0.659 5.634-0.743"/>
  <path d="m26.51 57.3c0.836-0.485 1.932-0.783 2.838-1.092-0.36 65.554-0.72 131.11-1.08 196.66-0.015999 2.934 1.209 4.354-2.37 5.057-5.292 1.04-9.969-3.267-13.735-6.332-5.799-4.722-3.787-13.53-3.843-20.417-0.066-8.156-0.13-16.313-0.195-24.47-0.232-29.286-0.46-58.573-0.667-87.859-0.102-14.362-0.2-28.723-0.292-43.084-0.059-9.154 0.89-19.316-0.833-28.378 5.292 5.509 12.188 10.343 20.177 9.912"/>
  <path d="m28.999 49.482c-0.48 0.364-0.961 0.728-1.441 1.092 0.508-1.618 0.039999-0.84-0.699-2.489 0.35-0.233 0.699-0.466 1.048-0.699 0.207 0.858 0.841 1.412 1.092 2.096"/>
  <path d="m109.75 80.314c0.894 0.52599 0.551 4.646 0.043999 6.376-1.204-2.743-3.205-5.655-6.419-6.027 3.18-0.673 4.128-2.49 4.279-5.633 0.662 1.847-0.736 5.634 2.096 5.284"/>
  <path d="m100.18 76.733c-0.612 1.241 0.021004 2.512 0.74 3.581-1.064-0.445-3.78-1.776-3.886-3.057-0.184-2.242 2.278-1.51 3.146-0.524"/>
  <path d="m155.82 124.6c0.244 2.668-2.148 4.91-1.791 8.167-0.79199-1.579-2.646-3.215-4.542-2.49-2.833 1.082-2.139 5.896-2.139 8.167-0.912-2.109-3.905-9.881-2.142-12.054 1.131-1.391 8.809-1.736 10.614-1.79"/>
  <path d="m163.24 137c0.014999 0.364 0.028992 0.728 0.043991 1.092-0.677-1.713-1.424-3.368-2.467-4.892-1.188-1.732-4.01-1.978-3.865-3.318 0.33601-3.124 6.58 4.31 6.288 7.118"/>
  <path d="m128.88 143.38c-2.348 0.671-4.738 1.741-6.682-0.327-1.114-1.186-4.866-0.84801-5.175-1.464-0.778-1.55-2.357-6.932-0.895-8.471 0.698-0.735 5.631-0.978 6.855-1.311 2.22-0.604 4.402-1.325 6.638-1.879-0.26199 4.494-0.942 8.938-0.741 13.452"/>
  <path d="m155.12 135.6c1.621 3.373 2.609 6.923 3.188 10.612-1.404-2.813-4.103-10.673-8.473-8.473 0.117-1.659 0.233-3.318 0.351-4.978 2.196 0.40399 2.432 4.978 4.934 2.839"/>
  <path d="m98.394 136.3c1.197 5.041-4.884 7.528-2.795 12.403-9.027 2.191-4.328 10.188-7.074 15.94-0.060005-1.755-0.512-3.451-0.613-5.197-0.11401-1.963 0.966-3.778 0.962-5.415-0.004997-2.235-1.422-5.101-1.485-7.643-0.067001-2.705 0.229-5.319-0.611-7.948 3.838-0.739 7.917-1.434 11.616-2.14"/>
  <path d="m146.96 141.59c2.904-1.304 5.37 6.908 4.978 9.607-2.091-1.582-2.491-4.279-4.127-6.201-0.782-0.91901-3.358-1.127-3.69-1.616-0.653-0.96301 0-4.413 0-5.634 1.31 1.077 1.566 2.998 2.839 3.844"/>
  <path d="m142.72 145.86c0.495 3.961 2.108 7.687 2.488 11.661-1.942-0.918-4.748-6.575-7.423-4.193-2.116 1.885 1.663 8.822 1.396 11.312-3.189-3.588-4.258-8.792-4.586-13.451 5.843 5.261 4.285-3.733 4.237-7.118 0.71201 1.55 2.254 2.669 3.888 1.789"/>
  <path d="m121.3 147.16c-2.478-0.241-7.32-0.31999-5.373 3.801 1.222 2.586 1.668-3.365 4.673-1.311-0.667 1.486-1.774 2.999-3.341 3.603-3.819 1.473-3.034-4.725-3.034-6.485 1.175 1.376 4.357-2.659 7.075 0.392"/>
  <path d="m97.544 150.3c-0.148 0.62-0.599 1.271-1.005 1.791-2.952-3.211-5.464 5.064-4.279 7.424 0.843 1.679 6.958 5.786 8.165 4.63 0.367 0.375 1.164 1.322 1.398 1.79-2.358-0.116-4.716-0.232-7.074-0.349 4.384-0.34599-2.611-3.416-3.406-4.936-2.222-4.245 0.845-11.608 6.201-10.35"/>
  <path d="m85.141 170.17c-1.65 0.772-3.351 0.396-5.043 0.895-2.318 0.683-1.928 2.495 0.436 2.358 0.76501-0.044006 4.968-1.424 5.016-0.461 0.214 4.347 1.375 6.162-2.417 8.059-1.586 0.79401-4.15 2.297-5.59 1.508-1.714-0.93901-0.897-3.504-1.703-4.018-4.964-3.164-1.401 3.615-0.917 4.761-1.411 0.521-2.818 0.375-4.236-0.067001-1.292-0.40201-2.022-2.356-2.228-2.423-2.759-0.89099-3.986 5.083-7.73 5.678 0.75-1.957 1.697-4.017 1.966-6.114 0.28-2.184-1.281-4.001-1.223-5.59 0.067001-1.816 2.771-5.363 4.192-6.376-0.35001-0.35001-0.699-0.699-1.048-1.049 0.992-0.76399 2.017-1.396 3.188-1.746-1.168 0.952-1.297 3.418 0.479 3.887 1.083 0.286 1.229-1.882 2.599-1.987 1.122-0.087006 1.545-1.069 2.467-1.463 1.933-0.825 6.749-3.781 5.852 0.698-0.504 2.52-3.197 6.323-6.07 5.59 4.557-0.425 1.4-4.09-1.048-2.489-2.973 1.944 1.398 3.704-0.349 5.328-1.057-1.835-5.768-5.158-4.28-1.092 0.148 0.40399 3.115 3.222 3.668 3.406 1.637 0.547 4.045-1.646 2.751-3.057 4.298 0.14099 10.504-7.937 6.486-11.333-2.334-1.974-4.951-0.759-7.185 0.578-5.703 3.412-2.204 0.63699-2.14-1.647 4.087-0.246 5.44-4.511 8.735-6.158 1.599-0.8 3.406-0.37001 5.066-0.567 0.116 4.928 0.451 10.04 0.306 14.891"/>
  <path d="m123.79 162.7c-2.067 2.658-6.672 2.107-10.265 2.532 0.851-0.444 1.295-1.901 1.879-2.183 0.872-0.42 1.104 0.135 2.314-0.131 1.787-0.39101 5.121-1.4 6.072-0.218"/>
  <path d="m156.52 177c-3.457 1.421-7.256 1.949-10.962 2.184 0.25099-3.671-1.246-9.879 2.839-12.054 2.5-1.331 5.836-0.133 8.472-1.746 0.36101 3.845-0.54799 7.9-0.349 11.616"/>
  <path d="m139.53 180.19c-1.179 0.131-2.358 0.26199-3.537 0.39299 2.475-2.722 4.949-5.444 7.424-8.166-0.17702 2.665 1.124 9.695-3.887 7.773"/>
 </g>
 <path d="m68.653 178.79c-1.543 0.58099-6.698 0.003006-3.538-1.353 1.181-0.506 3.469 0.418 3.538 1.353"/>
 <g fill="#fff">
  <path d="m156.17 190.85c-3.585 0.84-7.305 1.112-10.963 1.442 0-3.896-2.049-10.523 2.469-10.919 2.853-0.25 6.141-1.676 8.844-1.484-0.116 3.613-0.235 7.504-0.34999 10.961"/>
  <path d="m72.54 190.1c-0.75-0.003006-1.354-0.095001-1.311 1.049 0.082001 2.171 4.653 1.324 5.495 1.273 3.406-0.20999 2.623 2.966 3.305 5.997 0.562 2.495 1.525 5.457 1.333 7.533-0.198 2.136 1.264 2.055-1.959 2.897-2.863 0.74901-5.942 0.771-8.881 0.771-6.073 0-12.26-1.107-18.158-2.489 1.776-4.134 3.551-8.269 5.327-12.402 3.181 4.995 9.529-1.718 4.281-5.635 2.203-0.399 2.854-2.122 4.586-3.188 2.812-1.729 2.297-0.451 4.978 0 4.974 0.83699 11.246-1.014 15.242-3.93-3.695 3.927-8.004 10.266-14.238 8.124"/>
  <path d="m143.07 192.59c-3.654 0.71399-7.309 1.427-10.963 2.141 0-3.919-1.603-9.307 2.01-11.225 2.528-1.342 6.215-0.61101 8.953-1.527v10.611"/>
  <path d="m102.52 186.81c-2.108 3.94-6.647 5.389 1.092 6.027-0.672 2.779 0.194 5.878-2.84 7.468-1.042 0.546-3.882 0.526-5.239 0.96001-1.838 0.58701-3.46 1.339-5.415 1.529v-7.613c0-3.193-0.638-4.971 1.31-6.318 2.214-1.533 8.439-2.38 11.092-2.053"/>
  <path d="m119.7 196.87c-0.102-2.901 7.598-7.839 9.912-9.913 0 1.061 0.44299 8.042-0.23 8.164-3.228 0.58301-6.454 1.166-9.682 1.749"/>
  <path d="m87.63 205.94c-0.979-0.82701-1.729-0.009003-3.057 0.523-2.003 0.801-1.922-3.388-2.271-4.826-0.797-3.287-0.429-8.957-1.748-10.896 2.203-1.033 4.752-1.032 7.12-1.441 9.99e-4 5.518 0.189 11.207-0.044006 16.64"/>
  <path d="m144.86 206.79c0.065002-2.276-1.066-10.499 0.34799-12.053 2.035-2.236 8.483 0.26001 10.963-2.097v12.566c0 0.586-10.022 1.425-11.311 1.584"/>
  <path d="m142.72 207.14c-3.664 0.73999-7.331 1.463-11.006 2.14 0-3.21-1.739-11.692 1.682-12.381 3.134-0.63 6.148-1.712 9.324-2.161v12.402"/>
  <path d="m129.22 197.57c0 2.116 1.305 10.953 0 12.402-0.86499 0.961-8.647 1.529-10.263 1.79-0.097-2.049-0.782-11.406 0.393-12.752 1.098-1.257 7.984-0.786 9.87-1.44"/>
  <path d="m116.37 211.62c-3.083 0.632-6.013 1.839-9.215 1.441 0.455-4.635 2.11-13.853 8.822-13.845 0.131 4.136 0.262 8.269 0.393 12.404"/>
  <path d="m98.636 203.1c-1.873 2.617-3.784 7.998-6.376 9.216 1.273 0.601 0.724 2.085 0.349 3.581-1.145-1.658-3.45-3.211-1.048-4.979-1.786-1.385-0.744-3.74-1.44-5.677 2.902-0.384 5.711-2.11 8.515-2.141"/>
  <path d="m86.931 211.27c-1.851 0.38-3.241-0.149-2.729-2.03 0.328-1.203 2.995-1.089 3.823-2.25 0.097 1.535 0.395 3.442-1.094 4.28"/>
  <path d="m156.17 217.75c-3.771 0.597-7.54 1.194-11.311 1.791v-10.023c0-0.658 5.097-1.118 5.896-1.2 0.66699-0.067993 5.415-0.61 5.415 0.136v9.296"/>
  <path d="m100.38 208.78c0.923 2.825-1.976 7.798-4.323 6.813 0.69-1.728 3.246-6.657 4.323-6.813"/>
  <path d="m142.72 219.89c-3.785 0.713-7.57 1.427-11.355 2.14-0.015991-1.277 0.31401-2.215 1.093-2.838-1.821-1.334 1.211-3.667-0.743-3.888 0-4.277 0.131-3.67 3.953-4.279 2.363-0.37701 4.705-0.93201 7.053-1.397-9.92e-4 3.42-9.92e-4 6.841-9.92e-4 10.262"/>
  <path d="m63.917 210.92c0.452 2.799-4.214 3.201-6.114 4.368-4.294 2.637-6.035 5.166-5.59 10.175-2.468 0.007996-5.012-0.284-7.424 0.35001v-9.034c0-3.596-0.502-3.4 2.707-3.936 1.697-0.283 8.187-2.451 7.97-0.06601-0.232 2.568 2.424 4.293 2.424 1.311 0-4.661 0.864-3.851 6.027-3.168"/>
  <path d="m129.62 221.88c-3.405 0.582-6.812 1.207-10.263 1.441v-1.092c0.733 0.069 0.89001-0.17799 1.398-0.34999-1.787-0.668-2.769-6.616-1.398-8.166 1.026-1.161 7.926-1.997 9.87-2.097 0.13899 3.421-0.265 6.883 0.393 10.264"/>
  <path d="m73.48 219.39c1.665 0.20801 6.928 1.954 6.551-0.91699-0.407-3.093-7.716-1.268-5.721-4.629 1.992-3.355 11.764-0.59201 14.192 1.397 4.441 3.637 0.935 6.398-2.293 9.192-5.616 4.864-23.477 7.316-29.674 2.599-6.063-4.615 1.723-10.829 6.682-11.485 0.285 3.025-0.536 6.858 4.28 6.552 4.85-0.30899 4.155-5.344-1.092-4.806 1.063-1.659 2.125-3.318 3.188-4.978 2.603 1.743 0.42 6.233 3.887 7.075"/>
  <path d="m116.47 224.02c-3.132 0.070999-6.045 1.41-9.172 1.44-0.009003-0.463 0.543-3.096 0.523-3.122-0.756-1.038-0.771-3.083-0.523-4.302 0.515-2.538 0.271-2.086 3.078-2.62 2.041-0.39 4.078-0.80199 6.094-1.311v9.915"/>
  <path d="m90.469 227.16c-0.784 2.686-11.565 3.082-14.499 4.28v-0.698c3.454-0.951 6.878-2.085 10.066-3.735 2.822-1.46 2.924-2.192 4.433 0.153"/>
  <path d="m56.143 229.65c0.021 1.193-0.682 5.02 0.698 5.721 2.533 1.287 1.773-3.607 1.792-4.628 4.693 1.578 10.125 0.875 14.891 0-3.267 2.471-7.512 2.61-11.354 3.536-5.914 1.425-11.722 2.897-17.73 3.931 0.132-2.962 0.098-6.023 1.135-8.21 0.535-1.128 0.459-0.643 0.306-1.703 3.425-1.578 7.492-0.82901 10.262 1.353"/>
  <path d="m61.427 174.76c0.999-2.165 1.91-5.104 4.062-6.289-0.29099-0.379-0.583-0.757-0.87399-1.136 0.933-1.006 1.943-1.663 3.188-1.746-1.003 0.742-0.91901 2.193-0.787 3.144-0.167-0.147 0.183-0.136 0.132-0.218 1.521 1.937 5.466-2.985 7.861-3.888 7.946-2.993 3.043 8.909-1.878 7.687 4.415-1.119 0.888-4.11-1.267-2.401-2.205 1.749 0.552 2.812 0.393 3.799-0.27901 1.728-0.241 1.455-2.008-0.30499-1.457-1.451-4.328-1.81-2.795 0.65399 1.836 0.815 3.014 4.409 5.328 2.97 0.090004 1.024-0.21 2.289 0.132 3.231 0.296 0.81599 1.925 1.222 1.877 2.228-0.139 2.953-4.996 0.177-6.245-0.48-1.342-0.707 0.998-2.654-1.878-1.092-0.731 0.397-1.253 2.263-1.79 2.926-1.092 1.35-2.196 2.674-4.149 2.621 1.442-3.699 3.384-8.144 0.698-11.705"/>
 </g>
</svg>
